<?xml version="1.0" encoding="UTF-8" standalone="no"?>
<svg
   xmlns:dc="http://purl.org/dc/elements/1.1/"
   xmlns:cc="http://creativecommons.org/ns#"
   xmlns:rdf="http://www.w3.org/1999/02/22-rdf-syntax-ns#"
   xmlns:svg="http://www.w3.org/2000/svg"
   xmlns="http://www.w3.org/2000/svg"
   xmlns:sodipodi="http://sodipodi.sourceforge.net/DTD/sodipodi-0.dtd"
   xmlns:inkscape="http://www.inkscape.org/namespaces/inkscape"
   sodipodi:docname="logo.svg"
   inkscape:version="1.0 (1.0+r73+1)"
   id="svg8"
   version="1.1"
   viewBox="0 0 793.75001 238.125"
   height="900"
   width="3000">
  <defs
     id="defs2" />
  <sodipodi:namedview
     inkscape:window-maximized="1"
     inkscape:window-y="25"
     inkscape:window-x="0"
     inkscape:window-height="1391"
     inkscape:window-width="2560"
     units="px"
     showgrid="false"
     inkscape:document-rotation="0"
     inkscape:current-layer="layer1"
     inkscape:document-units="px"
     inkscape:cy="592.87239"
     inkscape:cx="1473.0781"
     inkscape:zoom="0.595"
     inkscape:pageshadow="2"
     inkscape:pageopacity="0.0"
     borderopacity="1.0"
     bordercolor="#666666"
     pagecolor="#ffffff"
     id="base" />
  <metadata
     id="metadata5">
    <rdf:RDF>
      <cc:Work
         rdf:about="">
        <dc:format>image/svg+xml</dc:format>
        <dc:type
           rdf:resource="http://purl.org/dc/dcmitype/StillImage" />
        <dc:title></dc:title>
      </cc:Work>
    </rdf:RDF>
  </metadata>
  <g
     style="display:inline"
     id="layer1"
     inkscape:groupmode="layer"
     inkscape:label="Layer 1">
    <g
       transform="translate(3.4627552,4.9777107)"
       id="g1220">
      <g
         id="g1200"
         transform="translate(110.23943,-4.9291637)">
        <g
           transform="matrix(1.2170015,0,0,1.2170015,9.0722534,2.5745512)"
           id="g1122">
          <path
             id="path835"
             style="fill:none;stroke:#000005;stroke-width:18;stroke-miterlimit:4;stroke-dasharray:none;stroke-opacity:1"
             d="m 610.68359,223.5918 c -6.69015,-9.63718 -14.05151,-18.79075 -22.02929,-27.39258 -1.43098,-26.63347 -1.95395,-45.42311 10.20811,-71.0181 -27.39022,9.94264 -38.63954,14.09164 -58.19639,30.82279 -9.87025,-6.34767 -20.17578,-11.99124 -30.83985,-16.88868 -14.08186,-50.154779 11.54297,-83.092866 6.36479,-97.764898 -18.56926,16.322728 -53.74218,47.790722 -66.06205,78.983648 -11.55945,-2.09236 -23.25196,-3.36571 -34.99024,-3.81054 -20.38171,-38.541036 -30.47442,-40.990769 -36.78381,-64.952696 -7.89668,17.632789 -14.24407,24.28633 -25.52674,70.439026 -11.49457,2.49259 -22.79816,5.79509 -33.82617,9.88281 -26.02408,-6.47576 -59.17293,-44.98072 -78.93107,-64.565255 0.26114,29.496528 16.29262,72.304185 23.48771,93.477365 -9.67094,6.70805 -18.85469,14.09238 -27.48242,22.09765 -13.70932,1.32649 -32.02144,1.86857 -74.82895,-16.54863 14.2863,23.91596 11.574,46.69417 34.68833,64.48223 -6.36394,9.89752 -12.01934,20.23322 -16.92383,30.92968 -24.89509,6.3242 -71.3456,-4.62325 -102.039683,-9.00146 17.650611,21.47699 56.481833,59.09102 83.307263,68.66943 -2.08657,11.56837 -3.35275,23.27006 -3.78907,35.01758 -16.6817,18.22077 -33.43027,29.51105 -63.095487,37.77344 25.743347,14.89099 42.572047,26.82449 68.630647,24.54883 2.49649,11.47219 5.79962,22.75414 9.88477,33.76172 -12.31607,23.19795 -51.88263,51.75914 -71.7826,71.41968 27.55319,3.66079 74.64425,-2.71529 100.74744,-15.93531 6.69078,9.63724 14.0528,18.79082 22.03125,27.39258 2.89145,32.85293 -7.71265,40.18364 -18.31369,64.50061 16.31612,-2.82977 22.02538,13.36259 66.30197,-24.30334 9.87025,6.34767 20.17578,11.99124 30.83985,16.88867 10.84037,25.48716 1.53368,69.38615 1.39615,96.88386 17.59948,-18.25841 41.70637,-42.08331 58.30111,-78.10261 11.55945,2.09236 23.25196,3.36571 34.99024,3.81054 22.52573,15.10458 30.56137,35.76501 40.91442,61.79994 9.79248,-14.04747 15.01018,-28.33846 21.39808,-67.28822 11.49452,-2.49195 22.79811,-5.79381 33.82617,-9.88086 21.3747,6.89135 48.41981,47.85716 68.9294,71.02038 6.99861,-18.9279 2.83625,-60.82614 -13.488,-99.93444 9.67155,-6.70735 18.85596,-14.09103 27.48438,-22.0957 23.86783,1.33027 44.71203,1.56044 70.86919,15.57154 -5.66329,-30.54137 -0.54834,-40.15764 -22.73953,-55.00551 40.07582,-51.37098 48.63147,-106.65792 47.67084,-143.82669 -0.65212,-25.23209 -7.40505,-75.27708 -26.42781,-74.70435 -34.14919,1.02814 -13.62532,90.80217 -43.52322,93.47135 -22.59935,2.0176 -9.00914,-56.98558 -62.08457,-53.60945 -26.12748,-52.56814 -51.15917,-77.16002 -94.68783,-86.17639 h -89.50952 v 50.75799 h -91.08691 c 0,0 -10.85017,0.34452 -10.68952,13.93527 0.17036,14.41217 10.68952,13.32836 10.68952,13.32836 h 91.08691 v 85.326 h -91.56245 c 0,0 -10.33483,2.3212 -10.42745,14.09227 -0.10382,13.19437 10.90299,13.24464 10.90299,13.24464 h 91.08691 v 47.41385 h 89.50952 c 56.14006,-13.29808 78.88023,-42.35704 99.28705,-101.25057"
             transform="scale(0.26458334)"
             sodipodi:nodetypes="ccccccccccccccccccccccccccccccccccccccccssscccccsccccsccccc" />
          <rect
             style="fill:none;stroke:#000000;stroke-width:4.08269;stroke-linejoin:round;stroke-miterlimit:4;stroke-dasharray:none"
             id="rect848"
             width="6.5634899"
             height="46.617138"
             x="104.10345"
             y="73.521942" />
        </g>
        <path
           d="m 140.31413,48.673595 c -39.91173,0.08115 -72.223179,32.141633 -72.223218,71.662245 1.22e-4,39.57792 32.401938,71.66213 72.371638,71.66223 23.89911,-6e-5 45.0889,-11.47367 58.26786,-29.15846 a 49.136772,52.738877 0 0 1 -4.08095,-2.36593 c -11.98478,12.75327 -30.62685,19.72753 -53.93158,18.79414 -34.26007,-1.37218 -61.634979,-31.49082 -61.635002,-64.40973 -1.3e-5,-32.404569 25.827312,-59.826584 59.334482,-60.089167 0.53186,-0.0042 1.06616,-0.0013 1.60181,0.0082 21.19281,0.38008 39.05686,6.463208 51.4254,17.618717 a 49.136772,52.738877 0 0 1 1.66533,-1.222589 C 179.914,57.322748 161.21001,48.673674 140.46255,48.673619 c -0.0495,-5.1e-5 -0.0989,-5.1e-5 -0.14842,0 z"
           style="display:inline;fill:#ffd42a;stroke:#000005;stroke-width:0;stroke-linecap:square;stroke-linejoin:round;stroke-miterlimit:4;stroke-dasharray:none;stroke-opacity:1"
           id="path1125" />
      </g>
    </g>
    <text
       transform="scale(0.9271765,1.0785433)"
       id="text1154"
       y="131.31261"
       x="384.72113"
       style="font-size:81.2296px;line-height:1.25;font-family:sans-serif;letter-spacing:6.09222px;word-spacing:0px;stroke-width:0.304611"
       xml:space="preserve"><tspan
         style="font-style:normal;font-variant:normal;font-weight:bold;font-stretch:normal;font-size:81.2296px;font-family:Roboto;-inkscape-font-specification:'Roboto Bold';stroke-width:0.304611"
         y="131.31261"
         x="384.72113"
         id="tspan1152"
         sodipodi:role="line">Plug &amp; Sun</tspan></text>
    <text
       xml:space="preserve"
       style="font-size:151.325px;line-height:1.25;font-family:sans-serif;letter-spacing:11.3494px;word-spacing:0px;stroke-width:0.56747"
       x="18.594881"
       y="158.7565"
       id="text1194"
       transform="scale(0.89292905,1.1199098)"><tspan
         sodipodi:role="line"
         id="tspan1192"
         x="18.594881"
         y="158.7565"
         style="font-style:normal;font-variant:normal;font-weight:bold;font-stretch:normal;font-size:151.325px;font-family:Roboto;-inkscape-font-specification:'Roboto Bold';stroke-width:0.56747">FI</tspan></text>
  </g>
  <g
     sodipodi:insensitive="true"
     style="display:none"
     inkscape:label="Layer 2"
     id="layer2"
     inkscape:groupmode="layer" />
</svg>
